<?xml version="1.0" encoding="UTF-8" standalone="no"?>
<!-- Created with Inkscape (http://www.inkscape.org/) -->

<svg
   width="200mm"
   height="200mm"
   viewBox="0 0 200 200"
   version="1.1"
   id="svg6989"
   inkscape:version="1.2.1 (9c6d41e4, 2022-07-14)"
   sodipodi:docname="o.svg"
   xmlns:inkscape="http://www.inkscape.org/namespaces/inkscape"
   xmlns:sodipodi="http://sodipodi.sourceforge.net/DTD/sodipodi-0.dtd"
   xmlns="http://www.w3.org/2000/svg"
   xmlns:svg="http://www.w3.org/2000/svg">
  <sodipodi:namedview
     id="namedview6991"
     pagecolor="#ffffff"
     bordercolor="#000000"
     borderopacity="0.25"
     inkscape:showpageshadow="2"
     inkscape:pageopacity="0.0"
     inkscape:pagecheckerboard="0"
     inkscape:deskcolor="#d1d1d1"
     inkscape:document-units="mm"
     showgrid="false"
     inkscape:zoom="0.51263504"
     inkscape:cx="267.24666"
     inkscape:cy="356.00376"
     inkscape:window-width="1400"
     inkscape:window-height="997"
     inkscape:window-x="0"
     inkscape:window-y="25"
     inkscape:window-maximized="1"
     inkscape:current-layer="layer1" />
  <defs
     id="defs6986" />
  <g
     inkscape:label="Layer 1"
     inkscape:groupmode="layer"
     id="layer1">
    <path
       id="path1026"
       style="fill:#ef4444;stroke-width:1.34459;fill-opacity:1"
       d="M 100.0001 0 A 100 100 0 0 0 0 100.0001 A 100 100 0 0 0 100.0001 200.0002 A 100 100 0 0 0 200.0002 100.0001 A 100 100 0 0 0 100.0001 0 z M 100.0001 54.999744 A 45 45 0 0 1 144.99993 100.0001 A 45 45 0 0 1 100.0001 144.99993 A 45 45 0 0 1 54.999744 100.0001 A 45 45 0 0 1 100.0001 54.999744 z " />
  </g>
</svg>
